<svg width="100" height="86" viewBox="0 0 100 86" fill="none" xmlns="http://www.w3.org/2000/svg">
<path d="M63.185 52.54C63.5283 53.3738 63.6131 54.2915 63.4286 55.1741C63.244 56.0568 62.7986 56.8636 62.15 57.49L52.835 66.49C52.0008 67.2941 50.8886 67.7454 49.73 67.75C48.543 67.7331 47.4108 67.2479 46.58 66.4L37.85 57.4C37.2333 56.771 36.8148 55.9749 36.6463 55.1103C36.4778 54.2457 36.5668 53.3507 36.9022 52.5362C37.2375 51.7217 37.8046 51.0235 38.533 50.5282C39.2615 50.033 40.1192 49.7624 41 49.75H45.5V36.25C45.5 35.0565 45.9741 33.9119 46.818 33.068C47.6619 32.2241 48.8065 31.75 50 31.75C51.1935 31.75 52.3381 32.2241 53.182 33.068C54.0259 33.9119 54.5 35.0565 54.5 36.25V49.75H59C59.8961 49.7455 60.7731 50.0087 61.5187 50.5057C62.2643 51.0028 62.8445 51.7111 63.185 52.54ZM99.5 27.25V72.25C99.5 75.8304 98.0777 79.2642 95.5459 81.7959C93.0142 84.3277 89.5804 85.75 86 85.75H14C10.4196 85.75 6.9858 84.3277 4.45406 81.7959C1.92232 79.2642 0.5 75.8304 0.5 72.25V13.75C0.5 10.1696 1.92232 6.7358 4.45406 4.20406C6.9858 1.67232 10.4196 0.250001 14 0.250001H36.185C38.4121 0.249169 40.6048 0.799324 42.5677 1.85144C44.5306 2.90355 46.2027 4.42493 47.435 6.28L51.08 11.725C51.4876 12.344 52.0419 12.8528 52.6935 13.206C53.3451 13.5593 54.0738 13.7462 54.815 13.75H86C89.5804 13.75 93.0142 15.1723 95.5459 17.7041C98.0777 20.2358 99.5 23.6696 99.5 27.25ZM90.5 27.25C90.5 26.0565 90.0259 24.9119 89.182 24.068C88.3381 23.2241 87.1935 22.75 86 22.75H54.815C52.5879 22.7508 50.3952 22.2007 48.4323 21.1486C46.4694 20.0965 44.7973 18.5751 43.565 16.72L39.92 11.5C39.5124 10.881 38.9581 10.3722 38.3065 10.019C37.6549 9.66569 36.9262 9.47884 36.185 9.475H14C12.8065 9.475 11.6619 9.94911 10.818 10.793C9.97411 11.6369 9.5 12.7815 9.5 13.975V72.475C9.5 73.6685 9.97411 74.8131 10.818 75.657C11.6619 76.5009 12.8065 76.975 14 76.975H86C87.1935 76.975 88.3381 76.5009 89.182 75.657C90.0259 74.8131 90.5 73.6685 90.5 72.475V27.25Z" fill="#231F20"/>
</svg>
