<svg width="68" height="68" viewBox="0 0 68 68" fill="none" xmlns="http://www.w3.org/2000/svg">
<path d="M67.3333 18.1333C67.3359 17.6947 67.2518 17.2598 67.0859 16.8537C66.92 16.4475 66.6756 16.0781 66.3667 15.7667L52.2333 1.63335C51.9219 1.32441 51.5525 1.07999 51.1464 0.914111C50.7402 0.748229 50.3054 0.664145 49.8667 0.666682C49.428 0.664145 48.9931 0.748229 48.587 0.914111C48.1809 1.07999 47.8115 1.32441 47.5 1.63335L38.0667 11.0667L1.63333 47.5C1.3244 47.8115 1.07998 48.1809 0.914096 48.587C0.748214 48.9931 0.66413 49.428 0.666666 49.8667V64C0.666666 64.8841 1.01786 65.7319 1.64298 66.357C2.2681 66.9822 3.11594 67.3334 4 67.3334H18.1333C18.5998 67.3587 19.0663 67.2858 19.5027 67.1192C19.9392 66.9527 20.3357 66.6963 20.6667 66.3667L56.9 29.9333L66.3667 20.6667C66.6709 20.3436 66.9188 19.9718 67.1 19.5667C67.1321 19.301 67.1321 19.0324 67.1 18.7667C67.1156 18.6115 67.1156 18.4552 67.1 18.3L67.3333 18.1333ZM16.7667 60.6667H7.33333V51.2334L40.4333 18.1333L49.8667 27.5667L16.7667 60.6667ZM54.5667 22.8667L45.1333 13.4333L49.8667 8.73335L59.2667 18.1333L54.5667 22.8667Z" fill="#231F20"/>
</svg>
