<svg width="96" height="82" viewBox="0 0 96 82" fill="none" xmlns="http://www.w3.org/2000/svg">
<path d="M2.87497 34.16L45.625 58.86C46.3471 59.2769 47.1662 59.4963 48 59.4963C48.8338 59.4963 49.6529 59.2769 50.375 58.86L93.125 34.16C93.8448 33.7424 94.4423 33.1431 94.8576 32.422C95.2729 31.7009 95.4916 30.8834 95.4916 30.0512C95.4916 29.2191 95.2729 28.4015 94.8576 27.6804C94.4423 26.9593 93.8448 26.36 93.125 25.9425L50.375 1.24246C49.6529 0.82556 48.8338 0.606079 48 0.606079C47.1662 0.606079 46.3471 0.82556 45.625 1.24246L2.87497 25.9425C2.15516 26.36 1.55768 26.9593 1.14234 27.6804C0.727003 28.4015 0.508391 29.2191 0.508391 30.0512C0.508391 30.8834 0.727003 31.7009 1.14234 32.422C1.55768 33.1431 2.15516 33.7424 2.87497 34.16ZM48 10.8375L81.25 29.8375L48 49.075L14.75 30.0275L48 10.8375ZM88.375 47.84L48 71.1625L7.62497 47.84C7.08567 47.5239 6.4893 47.3175 5.87004 47.2324C5.25078 47.1473 4.62081 47.1853 4.01626 47.3441C3.4117 47.503 2.84445 47.7796 2.34701 48.1581C1.84958 48.5366 1.43175 49.0096 1.11747 49.55C0.803409 50.0921 0.5997 50.691 0.518079 51.3122C0.436458 51.9334 0.478538 52.5646 0.641896 53.1695C0.805254 53.7743 1.08666 54.3409 1.46991 54.8366C1.85316 55.3322 2.33068 55.7471 2.87497 56.0575L45.625 80.7575C46.3471 81.1744 47.1662 81.3938 48 81.3938C48.8338 81.3938 49.6529 81.1744 50.375 80.7575L93.125 56.0575C93.6693 55.7471 94.1468 55.3322 94.53 54.8366C94.9133 54.3409 95.1947 53.7743 95.3581 53.1695C95.5214 52.5646 95.5635 51.9334 95.4819 51.3122C95.4003 50.691 95.1965 50.0921 94.8825 49.55C94.5682 49.0096 94.1504 48.5366 93.6529 48.1581C93.1555 47.7796 92.5882 47.503 91.9837 47.3441C91.3791 47.1853 90.7492 47.1473 90.1299 47.2324C89.5107 47.3175 88.9143 47.5239 88.375 47.84Z" fill="#231F20"/>
</svg>
