<svg width="535" height="371" viewBox="0 0 535 371" fill="none" xmlns="http://www.w3.org/2000/svg">
<path d="M201.618 72.4336C197.544 57.5833 230.407 44.8489 239.037 56.8079C240.237 55.1077 244.672 54.075 246.707 54.5965C248.741 55.1181 250.453 56.4219 252.122 57.6841C254.418 59.447 256.797 61.2724 258.205 63.8071C259.625 66.3314 259.844 69.7737 257.934 71.9642C256.421 73.7061 251.955 74.8327 249.68 75.2917C248.094 75.615 246.759 75.8758 245.611 76.0636C244.588 74.5719 244.067 72.7256 244.254 70.9211C242.71 71.9433 241.667 73.6957 241.5 75.5525C241.468 75.9384 254.324 123.222 254.324 123.222C252.999 124.005 251.36 124.735 249.472 125.402C246.268 120.573 243.639 114.877 241.907 108.921C241.51 112.603 241.573 116.598 242.053 120.656C242.303 122.815 242.679 124.985 243.159 127.155C227.882 130.451 204.905 129.366 194.909 115.347C194.907 115.289 194.905 115.231 194.904 115.173C194.832 112.549 191.252 111.898 190.294 114.341C190.051 114.959 189.828 115.495 189.629 115.92C186.718 105.51 190.485 93.4625 201.618 72.4336V72.4336Z" fill="#2F2E41"/>
<path d="M409.267 190.195C405.653 194.48 399.248 195.025 394.961 191.412C394.545 191.062 394.159 190.68 393.805 190.268L345.562 205.542L338.055 193.242L395.486 175.519C399.992 172.195 406.34 173.153 409.664 177.657C412.446 181.426 412.282 186.609 409.267 190.195H409.267Z" fill="#FFB6B6"/>
<path d="M238.417 152.026C238.417 152.026 259.782 128.004 269.088 138.208C278.394 148.412 307.428 193.127 307.428 193.127L375.204 178.833L381.758 196.713L304.802 221.642C299.017 223.517 292.677 221.573 288.937 216.779L238.417 152.026V152.026Z" fill="#6C63FF"/>
<path d="M284.818 371H178.853L178.757 370.173L178.695 369.622L177.785 361.903L176.496 350.911L175.999 346.687C175.965 346.473 175.93 346.267 175.903 346.053C175.469 343.303 175.22 340.54 175.131 337.783C175 333.993 175.172 330.21 175.579 326.474V326.454C175.799 324.435 176.082 322.436 176.434 320.458C176.875 317.915 177.406 315.414 178.019 312.967C178.722 310.128 179.522 307.365 180.398 304.698C181.404 301.576 182.507 298.585 183.645 295.759C183.769 295.456 183.893 295.153 184.01 294.857L184.017 294.85C190.014 280.233 196.826 270.247 196.826 270.247H274.023C274.023 270.247 277.594 285.912 279.365 298.847C279.648 300.893 279.882 302.864 280.055 304.698C280.365 308.081 280.455 310.989 280.186 312.967C280.02 314.194 279.717 315.062 279.248 315.462C275.002 319.087 279.862 326.778 279.862 326.778C279.862 326.778 283.502 332.339 280.331 335.468C279.703 336.088 279.345 336.887 279.172 337.783C278.897 339.265 279.138 340.988 279.517 342.511C279.896 344.041 280.42 345.371 280.71 346.053C280.841 346.356 280.923 346.529 280.923 346.529L281.461 350.781L281.985 354.874L282.874 361.903L283.143 363.144L284.529 369.622L284.646 370.173L284.818 371H284.818Z" fill="#2F2E41"/>
<path d="M231.294 119.161L198.894 122.046L192.923 140.622L186.415 141.564C175.294 143.174 168.676 154.833 172.997 165.202L178.723 178.943C178.723 178.943 170.312 204.894 180.642 215.798L185.038 263.823L175.122 295.483L291.03 299.223L271.286 259.511L270.701 234.854C270.701 234.854 283.317 190.286 271.62 176.11L267.057 135.788L243.28 132.223L231.294 119.161H231.294Z" fill="#6C63FF"/>
<path d="M253.228 95.3289C256.567 80.9338 247.6 66.5587 233.2 63.2212C218.8 59.8837 204.42 68.8476 201.081 83.2428C197.742 97.6379 206.709 112.013 221.109 115.351C235.51 118.688 249.89 109.724 253.228 95.3289Z" fill="#FFB6B6"/>
<path d="M187.01 74.5198C182.935 59.6695 215.799 46.9351 224.428 58.8941C225.628 57.1939 230.063 56.1611 232.098 56.6827C234.133 57.2042 235.844 58.5081 237.514 59.7703C239.809 61.5331 242.188 63.3586 243.597 65.8933C245.016 68.4176 245.235 71.8599 243.326 74.0504C241.813 75.7923 237.347 76.9189 235.072 77.3779C233.486 77.7012 232.15 77.962 231.002 78.1498C229.98 76.6581 229.458 74.8118 229.646 73.0073C228.101 74.0295 227.058 75.7819 226.891 77.6386C226.86 78.0246 239.715 125.308 239.715 125.308C238.39 126.091 236.752 126.821 234.863 127.488C231.66 122.659 229.03 116.964 227.298 111.007C226.901 114.69 226.964 118.685 227.444 122.742C227.695 124.902 228.07 127.071 228.55 129.241C213.274 132.537 190.297 131.452 180.3 117.433C180.299 117.375 180.297 117.317 180.295 117.259C180.224 114.636 176.643 113.984 175.685 116.427C175.443 117.045 175.22 117.581 175.02 118.007C172.109 107.597 175.876 95.5487 187.01 74.5198L187.01 74.5198Z" fill="#2F2E41"/>
<path d="M415.808 370.173H55.9503L0.110291 370.862L391.723 347.49C404.786 346.711 415.808 357.091 415.808 370.173V370.173Z" fill="#3F3D56"/>
<path d="M503.939 369.622V371H0V0H1.37877V369.622H503.939Z" fill="#3F3D56"/>
<path d="M450.017 85.8116H358.293C356.178 85.8116 354.457 84.0974 354.457 81.9906C354.457 79.8839 356.178 78.1705 358.293 78.1705H450.017C452.132 78.1705 453.852 79.8839 453.852 81.9906C453.852 84.0974 452.132 85.8116 450.017 85.8116Z" fill="#6C63FF"/>
<path d="M404.121 98.1338C403.778 97.2892 402.594 97.2892 402.251 98.134C399.859 104.028 396.455 110.628 392.751 115.671C392.158 116.479 392.976 117.558 393.918 117.217L401.857 114.346V163.471H404.514V114.346L412.455 117.218C413.398 117.558 414.215 116.479 413.622 115.672C409.919 110.628 406.514 104.028 404.121 98.1338Z" fill="#3F3D56"/>
<path d="M532.635 113.893H476.085C474.781 113.893 473.72 112.836 473.72 111.537C473.72 110.238 474.781 109.182 476.085 109.182H532.635C533.939 109.182 535 110.238 535 111.537C535 112.836 533.939 113.893 532.635 113.893Z" fill="#F2F2F2"/>
<path d="M504.339 121.49C504.128 120.969 503.398 120.969 503.186 121.49C501.712 125.123 499.613 129.193 497.33 132.302C496.964 132.8 497.468 133.465 498.049 133.255L502.943 131.485V161.772H504.582V131.485L509.478 133.255C510.059 133.466 510.563 132.8 510.197 132.302C507.914 129.193 505.814 125.123 504.339 121.49Z" fill="#F2F2F2"/>
<path d="M504.37 190.996C511.156 190.996 516.658 185.496 516.658 178.712C516.658 171.928 511.156 166.428 504.37 166.428C497.583 166.428 492.081 171.928 492.081 178.712C492.081 185.496 497.583 190.996 504.37 190.996Z" fill="#F2F2F2"/>
<path d="M351.328 44.2894H294.778C293.474 44.2894 292.412 43.2326 292.412 41.9337C292.412 40.6349 293.474 39.5786 294.778 39.5786H351.328C352.632 39.5786 353.692 40.6349 353.692 41.9337C353.692 43.2326 352.632 44.2894 351.328 44.2894Z" fill="#F2F2F2"/>
<path d="M323.031 51.8864C322.82 51.3657 322.09 51.3657 321.879 51.8866C320.404 55.5201 318.305 59.5892 316.022 62.6988C315.656 63.1967 316.16 63.862 316.741 63.6519L321.636 61.8819V92.1687H323.274V61.8818L328.17 63.6521C328.751 63.8622 329.255 63.1969 328.889 62.699C326.606 59.5893 324.507 55.5201 323.031 51.8864H323.031Z" fill="#F2F2F2"/>
<path d="M323.062 121.392C329.848 121.392 335.35 115.893 335.35 109.109C335.35 102.325 329.848 96.825 323.062 96.825C316.275 96.825 310.774 102.325 310.774 109.109C310.774 115.893 316.275 121.392 323.062 121.392Z" fill="#F2F2F2"/>
<path d="M180.596 347.127C183.496 342.329 181.956 336.09 177.156 333.191C176.691 332.91 176.205 332.667 175.701 332.464L174.683 281.887L160.619 278.729L162.268 338.792C160.566 344.124 163.511 349.826 168.845 351.528C173.309 352.951 178.167 351.132 180.596 347.127Z" fill="#FFB6B6"/>
<path d="M190.38 147.58C190.38 147.58 173.145 143.445 167.63 155.161C162.115 166.876 161.646 217.856 161.646 217.856L158.668 321.244L180.53 320.281L197.963 193.063L190.38 147.58Z" fill="#6C63FF"/>
<path d="M182.644 362.382C183.032 362.868 183.621 363.15 184.243 363.147H296.158C297.295 363.146 298.216 362.223 298.215 361.086C298.214 360.945 298.2 360.804 298.171 360.666L296.434 352.417C296.287 351.734 295.805 351.171 295.151 350.922C294.919 350.83 294.671 350.784 294.421 350.784H185.974C185.724 350.784 185.476 350.83 185.243 350.922C184.59 351.171 184.107 351.734 183.961 352.417L182.224 360.666C182.098 361.272 182.253 361.902 182.644 362.382Z" fill="#CCCCCC"/>
<path d="M139.799 177.719V306.768C139.802 310.193 142.578 312.968 146.003 312.971H337.307C340.733 312.968 343.509 310.193 343.511 306.768V177.719C343.503 174.298 340.729 171.528 337.307 171.524H146.003C142.581 171.528 139.807 174.298 139.799 177.719Z" fill="#E6E6E6"/>
<path d="M265.578 285.374C265.35 285.298 265.109 285.264 264.868 285.264H220.113C218.796 285.264 217.721 286.332 217.721 287.648V358.327H267.253V287.648C267.253 286.608 266.577 285.684 265.578 285.374ZM247.626 320.134C247.612 323.056 245.234 325.413 242.311 325.399C239.409 325.379 237.065 323.036 237.051 320.134V311.934C237.079 309.019 239.471 306.675 242.387 306.703C245.269 306.731 247.599 309.06 247.626 311.934V320.134Z" fill="#CCCCCC"/>
</svg>
