<svg width="382" height="382" viewBox="0 0 382 382" fill="none" xmlns="http://www.w3.org/2000/svg">
<path d="M303.19 5.5957H78.8174C66.4557 5.5957 56.4346 15.6168 56.4346 27.9785V354.021C56.4346 366.383 66.4557 376.404 78.8174 376.404H303.19C315.552 376.404 325.573 366.383 325.573 354.021V27.9785C325.573 15.6168 315.552 5.5957 303.19 5.5957Z" fill="#FFF8CC"/>
<path d="M174.228 166.954H106.05C103.943 166.954 101.856 166.538 99.9094 165.732C97.9628 164.925 96.1941 163.743 94.7045 162.253C93.2148 160.762 92.0334 158.993 91.2277 157.046C90.422 155.099 90.0078 153.012 90.0088 150.905V146.705C90.0067 139.776 92.4225 133.064 96.8396 127.726C101.257 122.388 107.398 118.759 114.205 117.465L140.139 112.519L166.073 117.465C172.877 118.763 179.015 122.393 183.429 127.73C187.843 133.068 190.257 139.778 190.254 146.705V150.905C190.256 155.158 188.569 159.238 185.564 162.247C182.558 165.257 178.481 166.95 174.228 166.954Z" fill="#FF6666"/>
<path d="M166.073 117.465L140.139 112.519L133.305 113.824L152.412 117.465C159.219 118.759 165.36 122.388 169.777 127.726C174.194 133.064 176.61 139.776 176.608 146.705V150.905C176.608 155.16 174.918 159.241 171.91 162.25C168.902 165.26 164.822 166.952 160.567 166.954H174.228C178.481 166.95 182.558 165.257 185.564 162.247C188.569 159.238 190.256 155.158 190.254 150.905V146.705C190.257 139.778 187.843 133.068 183.429 127.73C179.015 122.393 172.877 118.763 166.073 117.465Z" fill="#FF4E4E"/>
<path d="M129.156 107.93H151.121V118.912C151.121 121.825 149.964 124.618 147.905 126.678C145.845 128.738 143.051 129.895 140.139 129.895C137.226 129.895 134.433 128.738 132.373 126.678C130.313 124.618 129.156 121.825 129.156 118.912V107.93Z" fill="#FFCD85"/>
<path d="M129.156 107.93H151.121V118.912C151.121 121.825 149.964 124.618 147.905 126.678C145.845 128.738 143.051 129.895 140.139 129.895C137.226 129.895 134.433 128.738 132.373 126.678C130.313 124.618 129.156 121.825 129.156 118.912V107.93Z" fill="#FFCD85"/>
<path d="M142.332 107.93V118.905C142.332 121.041 141.709 123.132 140.539 124.919C139.368 126.707 137.702 128.115 135.744 128.97C137.129 129.577 138.626 129.89 140.139 129.887C143.051 129.887 145.845 128.73 147.904 126.671C149.964 124.611 151.121 121.817 151.121 118.905V107.93H142.332Z" fill="#FFC166"/>
<path d="M158.067 59.6874L113.876 68.0138V47.5037C113.876 42.9003 117.606 37.9761 122.21 37.9761H166.379V51.3535C166.379 53.5599 165.504 55.6763 163.946 57.2386C162.388 58.8008 160.274 59.6815 158.067 59.6874Z" fill="#595F74"/>
<path d="M155.187 37.9761V51.3535C155.187 53.5599 154.312 55.6763 152.754 57.2386C151.196 58.8008 149.082 59.6815 146.876 59.6874L113.876 65.9024V68.0138L158.067 59.6874C160.274 59.6815 162.388 58.8008 163.946 57.2386C165.504 55.6763 166.379 53.5599 166.379 51.3535V37.9761H155.187Z" fill="#4A4F60"/>
<path d="M123.426 59.6875H156.851C159.379 59.6934 161.801 60.7012 163.587 62.4899C165.373 64.2786 166.377 66.7024 166.379 69.2301V85.9426C166.379 92.9078 163.612 99.5878 158.686 104.513C153.761 109.438 147.081 112.205 140.116 112.205C133.151 112.205 126.471 109.438 121.546 104.513C116.62 99.5878 113.854 92.9078 113.854 85.9426V69.2301C113.854 67.9747 114.103 66.7318 114.585 65.5726C115.067 64.4133 115.772 63.3604 116.661 62.4741C117.55 61.5878 118.605 60.8855 119.766 60.4073C120.927 59.9292 122.171 59.6846 123.426 59.6875Z" fill="#FFCD85"/>
<path d="M156.851 59.6875H145.66C148.187 59.6934 150.61 60.7012 152.395 62.4899C154.181 64.2786 155.185 66.7024 155.187 69.23V85.9425C155.186 91.9352 153.135 97.7471 149.376 102.414C145.617 107.081 140.375 110.323 134.521 111.601C136.359 111.999 138.235 112.202 140.116 112.205C147.081 112.205 153.761 109.438 158.687 104.513C163.612 99.5878 166.379 92.9078 166.379 85.9425V69.23C166.377 66.7024 165.373 64.2786 163.587 62.4899C161.801 60.7012 159.379 59.6934 156.851 59.6875Z" fill="#FFC166"/>
<path d="M291.991 44.7656H217.635C216.151 44.7656 214.728 44.1761 213.679 43.1267C212.629 42.0773 212.04 40.654 212.04 39.1699C212.04 37.6858 212.629 36.2626 213.679 35.2132C214.728 34.1638 216.151 33.5742 217.635 33.5742H291.991C293.475 33.5742 294.899 34.1638 295.948 35.2132C296.997 36.2626 297.587 37.6858 297.587 39.1699C297.587 40.654 296.997 42.0773 295.948 43.1267C294.899 44.1761 293.475 44.7656 291.991 44.7656ZM291.991 172.549H217.635C216.151 172.549 214.728 171.96 213.679 170.91C212.629 169.861 212.04 168.437 212.04 166.953C212.04 165.469 212.629 164.046 213.679 162.997C214.728 161.947 216.151 161.358 217.635 161.358H291.991C293.475 161.358 294.899 161.947 295.948 162.997C296.997 164.046 297.587 165.469 297.587 166.953C297.587 168.437 296.997 169.861 295.948 170.91C294.899 171.96 293.475 172.549 291.991 172.549ZM291.991 150.166H217.635C216.151 150.166 214.728 149.577 213.679 148.527C212.629 147.478 212.04 146.055 212.04 144.571C212.04 143.087 212.629 141.663 213.679 140.614C214.728 139.564 216.151 138.975 217.635 138.975H291.991C293.475 138.975 294.899 139.564 295.948 140.614C296.997 141.663 297.587 143.087 297.587 144.571C297.587 146.055 296.997 147.478 295.948 148.527C294.899 149.577 293.475 150.166 291.991 150.166ZM291.991 207.787H125.135C123.651 207.787 122.227 207.198 121.178 206.148C120.129 205.099 119.539 203.675 119.539 202.191C119.539 200.707 120.129 199.284 121.178 198.235C122.227 197.185 123.651 196.596 125.135 196.596H291.991C293.475 196.596 294.899 197.185 295.948 198.235C296.997 199.284 297.587 200.707 297.587 202.191C297.587 203.675 296.997 205.099 295.948 206.148C294.899 207.198 293.475 207.787 291.991 207.787ZM258.417 67.1484H217.635C216.151 67.1484 214.728 66.5589 213.679 65.5095C212.629 64.4601 212.04 63.0368 212.04 61.5527C212.04 60.0687 212.629 58.6454 213.679 57.596C214.728 56.5466 216.151 55.957 217.635 55.957H258.417C259.901 55.957 261.324 56.5466 262.374 57.596C263.423 58.6454 264.013 60.0687 264.013 61.5527C264.013 63.0368 263.423 64.4601 262.374 65.5095C261.324 66.5589 259.901 67.1484 258.417 67.1484Z" fill="#FFED80"/>
<path d="M95.6045 207.787C98.6949 207.787 101.2 205.282 101.2 202.191C101.2 199.101 98.6949 196.596 95.6045 196.596C92.5141 196.596 90.0088 199.101 90.0088 202.191C90.0088 205.282 92.5141 207.787 95.6045 207.787Z" fill="#FFED80"/>
<path d="M291.991 241.361H125.135C123.651 241.361 122.227 240.772 121.178 239.722C120.129 238.673 119.539 237.25 119.539 235.766C119.539 234.282 120.129 232.858 121.178 231.809C122.227 230.759 123.651 230.17 125.135 230.17H291.991C293.475 230.17 294.899 230.759 295.948 231.809C296.997 232.858 297.587 234.282 297.587 235.766C297.587 237.25 296.997 238.673 295.948 239.722C294.899 240.772 293.475 241.361 291.991 241.361Z" fill="#FFED80"/>
<path d="M95.6045 241.361C98.6949 241.361 101.2 238.856 101.2 235.766C101.2 232.675 98.6949 230.17 95.6045 230.17C92.5141 230.17 90.0088 232.675 90.0088 235.766C90.0088 238.856 92.5141 241.361 95.6045 241.361Z" fill="#FFED80"/>
<path d="M291.991 274.936H125.135C123.651 274.936 122.227 274.346 121.178 273.297C120.129 272.247 119.539 270.824 119.539 269.34C119.539 267.856 120.129 266.432 121.178 265.383C122.227 264.334 123.651 263.744 125.135 263.744H291.991C293.475 263.744 294.899 264.334 295.948 265.383C296.997 266.432 297.587 267.856 297.587 269.34C297.587 270.824 296.997 272.247 295.948 273.297C294.899 274.346 293.475 274.936 291.991 274.936Z" fill="#FFED80"/>
<path d="M95.6045 274.936C98.6949 274.936 101.2 272.43 101.2 269.34C101.2 266.249 98.6949 263.744 95.6045 263.744C92.5141 263.744 90.0088 266.249 90.0088 269.34C90.0088 272.43 92.5141 274.936 95.6045 274.936Z" fill="#FFED80"/>
<path d="M291.991 308.51H125.135C123.651 308.51 122.227 307.92 121.178 306.871C120.129 305.821 119.539 304.398 119.539 302.914C119.539 301.43 120.129 300.007 121.178 298.957C122.227 297.908 123.651 297.318 125.135 297.318H291.991C293.475 297.318 294.899 297.908 295.948 298.957C296.997 300.007 297.587 301.43 297.587 302.914C297.587 304.398 296.997 305.821 295.948 306.871C294.899 307.92 293.475 308.51 291.991 308.51Z" fill="#FFED80"/>
<path d="M95.6045 308.51C98.6949 308.51 101.2 306.004 101.2 302.914C101.2 299.824 98.6949 297.318 95.6045 297.318C92.5141 297.318 90.0088 299.824 90.0088 302.914C90.0088 306.004 92.5141 308.51 95.6045 308.51Z" fill="#FFED80"/>
<path d="M291.991 342.084H125.135C123.651 342.084 122.227 341.494 121.178 340.445C120.129 339.396 119.539 337.972 119.539 336.488C119.539 335.004 120.129 333.581 121.178 332.532C122.227 331.482 123.651 330.893 125.135 330.893H291.991C293.475 330.893 294.899 331.482 295.948 332.532C296.997 333.581 297.587 335.004 297.587 336.488C297.587 337.972 296.997 339.396 295.948 340.445C294.899 341.494 293.475 342.084 291.991 342.084Z" fill="#FFED80"/>
<path d="M95.6045 342.084C98.6949 342.084 101.2 339.579 101.2 336.488C101.2 333.398 98.6949 330.893 95.6045 330.893C92.5141 330.893 90.0088 333.398 90.0088 336.488C90.0088 339.579 92.5141 342.084 95.6045 342.084Z" fill="#FFED80"/>
<rect x="76" y="297" width="229" height="58" fill="#F7701D"/>
<path d="M109.875 318.625H116.5C118.283 318.625 119.667 319.058 120.65 319.925C121.633 320.792 122.125 321.892 122.125 323.225C122.125 325.175 121 326.458 118.75 327.075C119.883 327.258 120.792 327.767 121.475 328.6C122.175 329.417 122.525 330.358 122.525 331.425C122.525 332.758 122.008 333.858 120.975 334.725C119.942 335.575 118.558 336 116.825 336H109.875V318.625ZM112.725 320.85V326H116.25C117.183 326 117.908 325.775 118.425 325.325C118.958 324.875 119.225 324.25 119.225 323.45C119.225 322.633 118.958 322 118.425 321.55C117.908 321.083 117.183 320.85 116.25 320.85H112.725ZM112.725 333.775H116.575C117.542 333.775 118.3 333.533 118.85 333.05C119.4 332.567 119.675 331.9 119.675 331.05C119.675 330.183 119.383 329.5 118.8 329C118.217 328.483 117.442 328.225 116.475 328.225H112.725V333.775ZM135.247 322.225H138.097V336H135.247V333.825C134.347 335.408 132.88 336.2 130.847 336.2C129.297 336.2 128.014 335.692 126.997 334.675C125.997 333.642 125.497 332.2 125.497 330.35V322.225H128.322V329.925C128.322 331.158 128.63 332.108 129.247 332.775C129.864 333.425 130.705 333.75 131.772 333.75C132.839 333.75 133.68 333.425 134.297 332.775C134.93 332.108 135.247 331.158 135.247 329.925V322.225ZM145.107 318.575C145.107 319.092 144.932 319.525 144.582 319.875C144.232 320.225 143.799 320.4 143.282 320.4C142.782 320.4 142.357 320.225 142.007 319.875C141.657 319.525 141.482 319.092 141.482 318.575C141.482 318.058 141.657 317.625 142.007 317.275C142.357 316.925 142.782 316.75 143.282 316.75C143.799 316.75 144.232 316.925 144.582 317.275C144.932 317.625 145.107 318.058 145.107 318.575ZM141.857 336V322.225H144.707V336H141.857ZM157.524 332.5C158.358 331.65 158.774 330.517 158.774 329.1C158.774 327.683 158.358 326.558 157.524 325.725C156.708 324.892 155.733 324.475 154.599 324.475C153.466 324.475 152.483 324.883 151.649 325.7C150.833 326.517 150.424 327.633 150.424 329.05C150.424 330.467 150.833 331.608 151.649 332.475C152.483 333.325 153.466 333.75 154.599 333.75C155.733 333.75 156.708 333.333 157.524 332.5ZM153.999 336.225C152.166 336.225 150.624 335.558 149.374 334.225C148.124 332.875 147.499 331.158 147.499 329.075C147.499 326.975 148.116 325.275 149.349 323.975C150.599 322.658 152.149 322 153.999 322C155.083 322 156.033 322.25 156.849 322.75C157.683 323.233 158.324 323.875 158.774 324.675V317.5H161.649V336H158.774V333.425C158.308 334.275 157.666 334.958 156.849 335.475C156.033 335.975 155.083 336.225 153.999 336.225ZM176.688 335.775L171.263 322.225H174.438L178.313 332.725L182.338 322.225H185.288L176.838 342.475H173.888L176.688 335.775ZM196.388 332.575C197.222 331.742 197.638 330.583 197.638 329.1C197.638 327.617 197.23 326.467 196.413 325.65C195.613 324.817 194.638 324.4 193.488 324.4C192.338 324.4 191.372 324.817 190.588 325.65C189.805 326.467 189.413 327.625 189.413 329.125C189.413 330.608 189.797 331.767 190.563 332.6C191.33 333.417 192.28 333.825 193.413 333.825C194.563 333.825 195.555 333.408 196.388 332.575ZM193.413 336.225C191.413 336.225 189.763 335.575 188.463 334.275C187.163 332.958 186.513 331.242 186.513 329.125C186.513 326.992 187.18 325.275 188.513 323.975C189.863 322.658 191.538 322 193.538 322C195.538 322 197.205 322.658 198.538 323.975C199.888 325.275 200.563 326.983 200.563 329.1C200.563 331.217 199.872 332.933 198.488 334.25C197.122 335.567 195.43 336.225 193.413 336.225ZM213.006 322.225H215.856V336H213.006V333.825C212.106 335.408 210.639 336.2 208.606 336.2C207.056 336.2 205.773 335.692 204.756 334.675C203.756 333.642 203.256 332.2 203.256 330.35V322.225H206.081V329.925C206.081 331.158 206.389 332.108 207.006 332.775C207.623 333.425 208.464 333.75 209.531 333.75C210.598 333.75 211.439 333.425 212.056 332.775C212.689 332.108 213.006 331.158 213.006 329.925V322.225ZM222.466 322.225V324.625C223.35 322.875 224.725 322 226.591 322V324.95H225.866C224.75 324.95 223.9 325.233 223.316 325.8C222.75 326.367 222.466 327.35 222.466 328.75V336H219.616V322.225H222.466ZM244.631 336.15C242.148 336.15 240.048 335.317 238.331 333.65C236.614 331.983 235.756 329.867 235.756 327.3C235.756 324.717 236.614 322.592 238.331 320.925C240.048 319.242 242.148 318.4 244.631 318.4C246.481 318.4 248.123 318.858 249.556 319.775C251.006 320.675 252.056 321.958 252.706 323.625H249.281C248.348 321.875 246.798 321 244.631 321C242.881 321 241.448 321.575 240.331 322.725C239.231 323.875 238.681 325.4 238.681 327.3C238.681 329.183 239.231 330.7 240.331 331.85C241.448 333 242.881 333.575 244.631 333.575C246.798 333.575 248.348 332.7 249.281 330.95H252.706C252.056 332.617 251.006 333.9 249.556 334.8C248.123 335.7 246.481 336.15 244.631 336.15ZM261.192 336L254.642 318.625H257.692L262.817 333.05L267.992 318.625H271.017L264.492 336H261.192Z" fill="white"/>
<circle r="24.5" transform="matrix(-1 0 0 1 31.5 202.5)" fill="#161412"/>
<path d="M19.0333 203.207C18.6428 202.817 18.6428 202.183 19.0333 201.793L25.3972 195.429C25.7878 195.038 26.4209 195.038 26.8115 195.429C27.202 195.819 27.202 196.453 26.8115 196.843L21.1546 202.5L26.8115 208.157C27.202 208.547 27.202 209.181 26.8115 209.571C26.4209 209.962 25.7878 209.962 25.3972 209.571L19.0333 203.207ZM48.6504 203.5H19.7404V201.5H48.6504V203.5Z" fill="#FFFAFA"/>
<circle cx="322.5" cy="202.5" r="24.5" fill="#161412"/>
<path d="M334.967 203.207C335.357 202.817 335.357 202.183 334.967 201.793L328.603 195.429C328.212 195.038 327.579 195.038 327.189 195.429C326.798 195.819 326.798 196.453 327.189 196.843L332.845 202.5L327.189 208.157C326.798 208.547 326.798 209.181 327.189 209.571C327.579 209.962 328.212 209.962 328.603 209.571L334.967 203.207ZM305.35 203.5H334.26V201.5H305.35V203.5Z" fill="#FFFAFA"/>
</svg>
