<svg width="560" height="457" viewBox="0 0 560 457" fill="none" xmlns="http://www.w3.org/2000/svg">
<g clip-path="url(#clip0_484_19752)">
<path d="M337.886 422.849C345.993 428.287 355.23 455.776 355.23 455.776C355.23 455.776 326.315 457.663 318.211 452.228C316.282 450.935 314.627 449.275 313.34 447.342C312.053 445.409 311.159 443.241 310.709 440.962C310.259 438.684 310.262 436.338 310.718 434.061C311.174 431.783 312.074 429.618 313.366 427.688C314.658 425.759 316.318 424.103 318.25 422.815C320.181 421.528 322.348 420.634 324.625 420.185C326.902 419.735 329.245 419.739 331.52 420.197C333.796 420.654 335.959 421.555 337.886 422.849V422.849Z" fill="#F1F1F1"/>
<path d="M355.559 455.569L355.106 455.931C338.583 435.184 313.649 428.018 313.399 427.948L313.555 427.39C313.807 427.46 338.916 434.672 355.559 455.569Z" fill="white"/>
<path d="M381.244 411.883C380.727 425.392 355.069 456.241 355.069 456.241C355.069 456.241 331.857 423.509 332.373 410.005C332.622 403.518 335.435 397.396 340.193 392.986C344.952 388.576 351.266 386.238 357.746 386.487C364.227 386.736 370.343 389.551 374.75 394.314C379.157 399.077 381.492 405.396 381.244 411.883Z" fill="#F1F1F1"/>
<path d="M355.551 456.479L354.797 456.207C367.228 421.659 357.564 387.05 357.465 386.704L358.235 386.483C358.335 386.831 368.072 421.68 355.551 456.479Z" fill="white"/>
<path d="M289.114 335.018H69.2132C65.2956 335.014 61.5396 333.454 58.7694 330.681C55.9992 327.909 54.4409 324.149 54.4365 320.228V68.7043C54.4409 64.7832 55.9992 61.024 58.7694 58.2513C61.5396 55.4786 65.2956 53.919 69.2132 53.9146H289.114C293.032 53.919 296.788 55.4786 299.558 58.2513C302.328 61.0239 303.886 64.7832 303.891 68.7043V320.228C303.886 324.149 302.328 327.909 299.558 330.681C296.788 333.454 293.032 335.014 289.114 335.018Z" fill="#E6E6E6"/>
<path d="M278.838 322.692H79.4883C76.0098 322.688 72.675 321.303 70.2153 318.841C67.7557 316.379 66.3721 313.042 66.3682 309.56V79.3729C66.3721 75.8914 67.7557 72.5536 70.2153 70.0918C72.675 67.63 76.0098 66.2452 79.4883 66.2412H278.838C282.317 66.2452 285.652 67.6299 288.111 70.0918C290.571 72.5536 291.954 75.8914 291.958 79.3729V309.56C291.954 313.042 290.571 316.379 288.111 318.841C285.652 321.303 282.317 322.688 278.838 322.692Z" fill="white"/>
<path d="M270.908 99.0029H170.342C169.911 99.0035 169.484 98.919 169.086 98.7543C168.687 98.5896 168.325 98.3479 168.02 98.0431C167.715 97.7382 167.473 97.3761 167.308 96.9775C167.143 96.5789 167.058 96.1517 167.058 95.7202C167.058 95.2887 167.143 94.8615 167.308 94.4629C167.473 94.0643 167.715 93.7022 168.02 93.3973C168.325 93.0924 168.687 92.8507 169.086 92.686C169.484 92.5213 169.911 92.4369 170.342 92.4375H270.908C271.339 92.4369 271.766 92.5213 272.165 92.686C272.563 92.8507 272.925 93.0924 273.231 93.3973C273.536 93.7022 273.778 94.0643 273.943 94.4629C274.108 94.8615 274.193 95.2887 274.193 95.7202C274.193 96.1517 274.108 96.5789 273.943 96.9775C273.778 97.3761 273.536 97.7382 273.231 98.0431C272.925 98.3479 272.563 98.5896 272.165 98.7543C271.766 98.919 271.339 99.0035 270.908 99.0029Z" fill="#E4E4E4"/>
<path d="M270.908 111.974H170.341C169.472 111.974 168.637 111.629 168.022 111.013C167.407 110.397 167.062 109.562 167.062 108.692C167.062 107.821 167.407 106.986 168.022 106.37C168.637 105.755 169.472 105.409 170.341 105.409H270.908C271.778 105.409 272.612 105.755 273.227 106.37C273.842 106.986 274.188 107.821 274.188 108.692C274.188 109.562 273.842 110.397 273.227 111.013C272.612 111.629 271.778 111.974 270.908 111.974Z" fill="#E4E4E4"/>
<path d="M213.935 124.946H170.341C169.472 124.946 168.637 124.6 168.022 123.985C167.407 123.369 167.062 122.534 167.062 121.663C167.062 120.793 167.407 119.958 168.022 119.342C168.637 118.726 169.472 118.38 170.341 118.38H213.935C214.804 118.38 215.639 118.726 216.254 119.342C216.869 119.958 217.214 120.793 217.214 121.663C217.214 122.534 216.869 123.369 216.254 123.985C215.639 124.6 214.804 124.946 213.935 124.946Z" fill="#E4E4E4"/>
<path d="M258.781 177.336H100.018C99.5868 177.337 99.1598 177.253 98.7613 177.088C98.3629 176.923 98.0007 176.681 97.6957 176.377C97.3906 176.072 97.1486 175.71 96.9835 175.311C96.8184 174.912 96.7334 174.485 96.7334 174.054C96.7334 173.622 96.8184 173.195 96.9835 172.796C97.1486 172.398 97.3906 172.036 97.6957 171.731C98.0007 171.426 98.3629 171.184 98.7613 171.02C99.1598 170.855 99.5868 170.77 100.018 170.771H258.781C259.212 170.77 259.639 170.855 260.037 171.02C260.436 171.184 260.798 171.426 261.103 171.731C261.408 172.036 261.65 172.398 261.815 172.796C261.98 173.195 262.065 173.622 262.065 174.054C262.065 174.485 261.98 174.912 261.815 175.311C261.65 175.71 261.408 176.072 261.103 176.377C260.798 176.681 260.436 176.923 260.037 177.088C259.639 177.253 259.212 177.337 258.781 177.336Z" fill="#E4E4E4"/>
<path d="M258.781 190.308H100.018C99.1483 190.308 98.3141 189.962 97.699 189.346C97.0839 188.731 96.7383 187.896 96.7383 187.025C96.7383 186.154 97.0839 185.319 97.699 184.704C98.3141 184.088 99.1483 183.742 100.018 183.742H258.781C259.651 183.742 260.485 184.088 261.1 184.704C261.715 185.319 262.061 186.154 262.061 187.025C262.061 187.896 261.715 188.731 261.1 189.346C260.485 189.962 259.651 190.308 258.781 190.308Z" fill="#E4E4E4"/>
<path d="M258.781 219.752H100.018C99.1482 219.752 98.314 219.407 97.6989 218.791C97.0838 218.175 96.7383 217.34 96.7383 216.47C96.7383 215.599 97.0838 214.764 97.6989 214.148C98.314 213.533 99.1482 213.187 100.018 213.187H258.781C259.651 213.187 260.485 213.533 261.1 214.148C261.715 214.764 262.061 215.599 262.061 216.47C262.061 217.34 261.715 218.175 261.1 218.791C260.485 219.407 259.651 219.752 258.781 219.752Z" fill="#E4E4E4"/>
<path d="M258.781 232.724H100.018C99.1483 232.724 98.3141 232.378 97.699 231.762C97.0839 231.147 96.7383 230.312 96.7383 229.441C96.7383 228.57 97.0839 227.735 97.699 227.12C98.3141 226.504 99.1483 226.158 100.018 226.158H258.781C259.651 226.158 260.485 226.504 261.1 227.12C261.715 227.735 262.061 228.57 262.061 229.441C262.061 230.312 261.715 231.147 261.1 231.762C260.485 232.378 259.651 232.724 258.781 232.724Z" fill="#E4E4E4"/>
<path d="M258.781 262.169H100.018C99.1482 262.169 98.314 261.823 97.6989 261.207C97.0838 260.592 96.7383 259.757 96.7383 258.886C96.7383 258.016 97.0838 257.181 97.6989 256.565C98.314 255.949 99.1482 255.604 100.018 255.604H258.781C259.651 255.604 260.485 255.949 261.1 256.565C261.715 257.181 262.061 258.016 262.061 258.886C262.061 259.757 261.715 260.592 261.1 261.207C260.485 261.823 259.651 262.169 258.781 262.169Z" fill="#E4E4E4"/>
<path d="M258.781 275.14H100.018C99.1483 275.14 98.3141 274.795 97.699 274.179C97.0839 273.563 96.7383 272.728 96.7383 271.858C96.7383 270.987 97.0839 270.152 97.699 269.536C98.3141 268.921 99.1483 268.575 100.018 268.575H258.781C259.651 268.575 260.485 268.921 261.1 269.536C261.715 270.152 262.061 270.987 262.061 271.858C262.061 272.728 261.715 273.563 261.1 274.179C260.485 274.795 259.651 275.14 258.781 275.14Z" fill="#E4E4E4"/>
<path d="M258.753 311.071H215.16C214.29 311.071 213.456 310.725 212.841 310.11C212.225 309.494 211.88 308.659 211.88 307.788C211.88 306.918 212.225 306.083 212.841 305.467C213.456 304.851 214.29 304.505 215.16 304.505H258.753C259.623 304.505 260.457 304.851 261.072 305.467C261.687 306.083 262.033 306.918 262.033 307.788C262.033 308.659 261.687 309.494 261.072 310.11C260.457 310.725 259.623 311.071 258.753 311.071Z" fill="#6C63FF"/>
<path d="M142.503 109.076C142.512 116.126 140.127 122.97 135.74 128.485C134.321 130.28 132.706 131.911 130.924 133.346C126.061 137.294 120.12 139.679 113.88 140.188C113.03 140.262 112.174 140.295 111.311 140.295C109.601 140.296 107.894 140.155 106.207 139.874C105.612 139.78 105.03 139.666 104.448 139.532C103.435 139.307 102.434 139.027 101.451 138.695C98.2617 137.633 95.266 136.059 92.5808 134.035C91.8652 133.5 91.1763 132.931 90.5074 132.328C89.6893 131.602 88.9142 130.828 88.1861 130.012C87.9921 129.797 87.7981 129.577 87.6109 129.356C84.347 125.532 82.0545 120.976 80.9286 116.075C79.8028 111.173 79.8769 106.072 81.1447 101.206C82.4125 96.3398 84.8364 91.8521 88.2101 88.1253C91.5838 84.3984 95.8073 81.5426 100.521 79.8011C105.235 78.0597 110.299 77.484 115.283 78.1233C120.267 78.7625 125.023 80.5977 129.145 83.4725C133.268 86.3474 136.636 90.1768 138.961 94.6347C141.287 99.0926 142.502 104.047 142.503 109.076L142.503 109.076Z" fill="#E4E4E4"/>
<path d="M110.226 119.731C117.285 119.731 123.008 114.003 123.008 106.937C123.008 99.8715 117.285 94.1436 110.226 94.1436C103.166 94.1436 97.4434 99.8715 97.4434 106.937C97.4434 114.003 103.166 119.731 110.226 119.731Z" fill="#9E616A"/>
<path d="M124.455 100.701C124.513 99.5576 124.191 98.4274 123.539 97.4871L123.077 96.831C121.412 93.6173 118.662 90.725 116.649 88.6093C115.137 87.0226 113.626 86.2593 112.174 86.333C111.117 86.4085 110.134 86.8995 109.438 87.6988C107.526 87.5819 105.622 88.0258 103.959 88.976C102.295 89.9262 100.945 91.3414 100.073 93.0482C93.9523 96.2819 95.7785 105.829 95.7984 105.93L97.2771 108.414L97.4443 108.099C97.4443 108.092 97.4642 108.065 97.491 108.012C97.7787 107.496 99.3439 104.631 100.401 102.816C100.787 102.198 101.3 101.668 101.906 101.263C102.896 100.586 104.034 100.157 105.224 100.011L108.475 99.5894L107.244 101.437H116.1L119.505 101.036C119.846 102.435 122.549 107.865 122.876 108.521L122.903 108.574L123.084 108.942L124.094 106.164C124.684 104.405 124.808 102.523 124.455 100.701Z" fill="#2F2E41"/>
<path d="M92.6747 134.102C93.2232 133.379 96.0662 130.005 102.608 128.217L106.073 124.354L119.967 122.138L127.037 126.048L135.74 128.485C134.321 130.28 132.706 131.911 130.924 133.346C126.061 137.294 120.12 139.679 113.88 140.188C113.03 140.262 112.174 140.295 111.311 140.295C109.601 140.296 107.894 140.155 106.207 139.874C105.612 139.78 105.03 139.666 104.448 139.532C103.435 139.307 102.434 139.027 101.451 138.695C98.2978 137.647 95.3343 136.096 92.6747 134.102C92.6413 134.082 92.6145 134.056 92.5811 134.035L92.6747 134.102Z" fill="#6C63FF"/>
<path d="M356.343 15.659H1.98487C1.45863 15.6585 0.954104 15.449 0.581993 15.0765C0.209882 14.7041 0.000573678 14.1991 0 13.6724V1.98661C0.000573678 1.45991 0.209882 0.954938 0.581993 0.5825C0.954104 0.210061 1.45863 0.000574182 1.98487 0H356.343C356.869 0.000574182 357.373 0.210061 357.746 0.5825C358.118 0.954938 358.327 1.45991 358.327 1.98661V13.6724C358.327 14.1991 358.118 14.7041 357.746 15.0765C357.373 15.449 356.869 15.6585 356.343 15.659Z" fill="#6C63FF"/>
<path d="M11.5192 10.08C13.0755 10.08 14.3372 8.81718 14.3372 7.25946C14.3372 5.70174 13.0755 4.43896 11.5192 4.43896C9.96284 4.43896 8.70117 5.70174 8.70117 7.25946C8.70117 8.81718 9.96284 10.08 11.5192 10.08Z" fill="white"/>
<path d="M22.2155 10.08C23.7718 10.08 25.0335 8.81718 25.0335 7.25946C25.0335 5.70174 23.7718 4.43896 22.2155 4.43896C20.6591 4.43896 19.3975 5.70174 19.3975 7.25946C19.3975 8.81718 20.6591 10.08 22.2155 10.08Z" fill="white"/>
<path d="M32.9118 10.08C34.4681 10.08 35.7298 8.81718 35.7298 7.25946C35.7298 5.70174 34.4681 4.43896 32.9118 4.43896C31.3554 4.43896 30.0938 5.70174 30.0938 7.25946C30.0938 8.81718 31.3554 10.08 32.9118 10.08Z" fill="white"/>
<path d="M345.862 5.3181H333.545C333.305 5.31604 333.075 5.21892 332.905 5.04789C332.736 4.87686 332.641 4.64576 332.641 4.40492C332.641 4.16407 332.736 3.93298 332.905 3.76195C333.075 3.59091 333.305 3.49379 333.545 3.49173H345.862C345.983 3.4907 346.102 3.51356 346.214 3.55899C346.326 3.60442 346.427 3.67152 346.513 3.75642C346.598 3.84132 346.666 3.94233 346.712 4.05364C346.759 4.16494 346.783 4.28434 346.783 4.40492C346.783 4.5255 346.759 4.64489 346.712 4.7562C346.666 4.8675 346.598 4.96852 346.513 5.05342C346.427 5.13832 346.326 5.20542 346.214 5.25085C346.102 5.29628 345.983 5.31913 345.862 5.3181Z" fill="white"/>
<path d="M345.862 8.74242H333.545C333.303 8.74242 333.071 8.64621 332.9 8.47495C332.729 8.3037 332.633 8.07142 332.633 7.82923C332.633 7.58704 332.729 7.35477 332.9 7.18351C333.071 7.01226 333.303 6.91605 333.545 6.91605H345.862C345.983 6.91502 346.102 6.93787 346.214 6.9833C346.326 7.02873 346.427 7.09583 346.513 7.18073C346.598 7.26563 346.666 7.36665 346.712 7.47795C346.759 7.58926 346.783 7.70865 346.783 7.82923C346.783 7.94981 346.759 8.06921 346.712 8.18051C346.666 8.29182 346.598 8.39284 346.513 8.47774C346.427 8.56263 346.326 8.62974 346.214 8.67516C346.102 8.72059 345.983 8.74345 345.862 8.74242Z" fill="white"/>
<path d="M345.863 12.1672H333.546C333.305 12.1652 333.075 12.0682 332.905 11.8971C332.736 11.7261 332.641 11.4949 332.641 11.254C332.641 11.0131 332.736 10.7819 332.905 10.6109C333.075 10.4399 333.305 10.3428 333.546 10.3408H345.863C346.104 10.3428 346.334 10.4399 346.503 10.6109C346.673 10.7819 346.768 11.0131 346.768 11.254C346.768 11.4949 346.673 11.7261 346.503 11.8971C346.334 12.0682 346.104 12.1652 345.863 12.1672Z" fill="white"/>
<path d="M443.148 314.251C442.581 313.634 442.157 312.9 441.904 312.101C441.651 311.301 441.577 310.456 441.686 309.625C441.795 308.793 442.084 307.996 442.534 307.289C442.985 306.582 443.584 305.982 444.291 305.532L439.595 285.7L449.534 289.335L452.47 307.61C453.147 308.848 453.346 310.292 453.03 311.668C452.714 313.044 451.905 314.256 450.756 315.075C449.607 315.893 448.198 316.262 446.796 316.11C445.394 315.958 444.096 315.297 443.148 314.251Z" fill="#9E616A"/>
<path d="M419.246 231.146L423.235 241.412C423.235 241.412 421.525 251.678 424.375 253.96C427.224 256.241 426.084 256.241 426.084 257.952C426.182 259.179 426.537 260.372 427.127 261.453C427.716 262.534 428.525 263.479 429.503 264.226C431.783 265.937 442.04 300.728 442.04 300.728H452.297C451.965 298.076 451.965 295.394 452.297 292.743C452.867 288.75 450.587 278.484 449.448 276.773C448.308 275.062 449.448 272.781 449.448 269.359C449.448 265.937 447.168 264.226 447.168 258.522C447.168 252.819 440.33 208.332 440.9 203.199C441.47 198.066 435.202 193.503 435.202 193.503H429.503L419.246 231.146Z" fill="#E4E4E4"/>
<path d="M445.477 448.054H437.897L434.291 418.789L445.479 418.789L445.477 448.054Z" fill="#9E616A"/>
<path d="M447.411 455.409L422.968 455.408V455.099C422.968 452.574 423.97 450.152 425.755 448.366C427.539 446.58 429.959 445.577 432.482 445.577H432.482L436.947 442.187L445.278 445.577L447.412 445.577L447.411 455.409Z" fill="#2F2E41"/>
<path d="M376.129 447.838L369.011 445.231L375.669 416.506L386.176 420.354L376.129 447.838Z" fill="#9E616A"/>
<path d="M375.421 455.409L352.466 447.003L352.572 446.713C353.439 444.341 355.212 442.411 357.5 441.348C359.789 440.284 362.406 440.174 364.775 441.042L364.776 441.042L370.133 439.393L376.792 445.442L378.796 446.176L375.421 455.409Z" fill="#2F2E41"/>
<path d="M428.777 311.205C428.777 311.205 423.648 336.3 432.196 334.019C440.743 331.737 437.324 310.064 437.324 310.064L428.777 311.205Z" fill="#A0616A"/>
<path d="M391.167 290.388C391.167 290.388 384.329 299.513 384.329 304.646C384.329 309.779 382.05 355.407 382.05 355.407C382.05 355.407 364.748 423.351 368.167 426.773C371.586 430.195 383.553 433.617 385.262 431.906C386.972 430.195 401.994 359.969 401.994 359.969L416.24 321.756L429.346 376.509L430.486 434.684C430.486 434.684 444.732 438.106 447.581 435.825C450.431 433.543 451 378.22 447.581 358.829C444.162 339.437 448.151 294.95 448.151 294.95L391.167 290.388Z" fill="#2F2E41"/>
<path d="M414.02 168.62C423.461 168.62 431.115 160.959 431.115 151.51C431.115 142.06 423.461 134.399 414.02 134.399C404.579 134.399 396.925 142.06 396.925 151.51C396.925 160.959 404.579 168.62 414.02 168.62Z" fill="#9E616A"/>
<path d="M392.307 193.43C392.307 193.43 397.229 186.089 406.917 176.393C412.045 174.682 420.931 175.679 424.012 176.393C438.258 195.215 439.154 193.964 442.863 204.48C443.824 207.207 444.305 209.827 443.878 211.966C442.168 220.521 447.582 289.817 448.152 292.099C448.721 294.38 452.71 297.232 448.721 297.232C444.732 297.232 384.329 294.95 385.469 293.239C386.609 291.528 392.307 193.43 392.307 193.43Z" fill="#E4E4E4"/>
<path opacity="0.1" d="M389.697 292.487L406.838 254.741L398.267 294.884L389.697 292.487Z" fill="black"/>
<path d="M408.848 167.361C410.448 166.169 411.922 164.815 413.246 163.321C414.575 161.813 415.407 159.932 415.628 157.934C415.725 156.938 415.569 155.934 415.174 155.014C414.779 154.095 414.158 153.29 413.368 152.676C411.74 151.524 409.257 151.591 407.906 153.058C408.559 150.946 409.155 148.454 407.832 146.683C406.629 145.07 404.384 144.796 402.444 144.265C398.704 143.223 395.486 140.823 393.418 137.535L396.711 138.217L396.344 135.867L399.073 136.817L399.097 133.544L401.914 135.121C405.362 131.957 409.907 130.262 414.583 130.397C416.942 130.436 419.253 131.071 421.301 132.242C423.353 133.431 424.908 135.321 425.678 137.566C427.128 136.06 429.713 136.176 431.44 137.353C433.167 138.53 434.181 140.5 434.878 142.472C436.258 146.253 436.579 150.34 435.807 154.291C435.012 158.251 432.88 161.816 429.769 164.389C426.912 166.572 423.51 167.926 419.936 168.304C416.376 168.674 412.781 168.52 409.266 167.848" fill="#2F2E41"/>
<path d="M384.361 314.177C384.928 313.56 385.353 312.826 385.606 312.026C385.858 311.227 385.933 310.382 385.824 309.55C385.715 308.719 385.425 307.922 384.975 307.215C384.525 306.508 383.925 305.908 383.219 305.458L387.915 285.626L377.975 289.26L375.04 307.536C374.363 308.774 374.163 310.218 374.479 311.594C374.795 312.97 375.604 314.182 376.753 315.001C377.902 315.819 379.311 316.188 380.713 316.036C382.116 315.884 383.414 315.223 384.361 314.177V314.177Z" fill="#9E616A"/>
<path d="M398.006 193.43H392.307C392.307 193.43 386.039 197.992 386.609 203.125C387.179 208.259 380.341 252.745 380.341 258.449C380.341 264.152 378.061 265.863 378.061 269.285C378.061 272.707 379.201 274.989 378.061 276.7C376.922 278.411 374.642 288.677 375.212 292.669C375.543 295.32 375.543 298.003 375.212 300.654H385.469C385.469 300.654 395.726 265.863 398.006 264.152C398.983 263.405 399.793 262.46 400.382 261.379C400.971 260.298 401.327 259.106 401.425 257.878C401.425 256.167 400.285 256.167 403.134 253.886C405.983 251.605 404.274 241.338 404.274 241.338L408.263 231.072L398.006 193.43Z" fill="#E4E4E4"/>
<path d="M559.203 457H246.618C246.513 457 246.41 456.98 246.313 456.94C246.216 456.9 246.128 456.841 246.053 456.767C245.979 456.693 245.92 456.605 245.88 456.509C245.84 456.412 245.819 456.308 245.819 456.203C245.819 456.098 245.84 455.994 245.88 455.897C245.92 455.8 245.979 455.712 246.053 455.638C246.128 455.564 246.216 455.506 246.313 455.466C246.41 455.426 246.513 455.405 246.618 455.406H559.203C559.308 455.405 559.412 455.426 559.509 455.466C559.606 455.506 559.694 455.564 559.768 455.638C559.842 455.712 559.901 455.8 559.941 455.897C559.981 455.994 560.002 456.098 560.002 456.203C560.002 456.308 559.981 456.412 559.941 456.509C559.901 456.605 559.842 456.693 559.768 456.767C559.694 456.841 559.606 456.9 559.509 456.94C559.412 456.98 559.308 457 559.203 457Z" fill="#CACACA"/>
</g>
<defs>
<clipPath id="clip0_484_19752">
<rect width="560" height="457" fill="white"/>
</clipPath>
</defs>
</svg>
