<svg width="399" height="269" viewBox="0 0 399 269" fill="none" xmlns="http://www.w3.org/2000/svg">
<path d="M320.193 35.102L321.473 24.8163C321.697 23.0058 322.276 21.2573 323.174 19.6709C324.073 18.0844 325.275 16.691 326.711 15.5702C328.147 14.4494 329.79 13.6233 331.544 13.139C333.299 12.6546 335.132 12.5216 336.938 12.7475C338.744 12.9733 340.488 13.5537 342.07 14.4554C343.652 15.357 345.042 16.5624 346.159 18.0025C347.277 19.4426 348.1 21.0893 348.582 22.8485C349.065 24.6078 349.197 26.445 348.971 28.2554L347.691 38.541C347.629 39.0318 347.376 39.478 346.986 39.7818C346.597 40.0856 346.103 40.2221 345.613 40.1615L321.809 37.1844C321.32 37.1226 320.875 36.8686 320.571 36.4782C320.268 36.0879 320.132 35.5929 320.193 35.102Z" fill="#2F2E41"/>
<path d="M331.595 38.1707C337.205 38.1707 341.753 33.6114 341.753 27.9873C341.753 22.3632 337.205 17.804 331.595 17.804C325.985 17.804 321.437 22.3632 321.437 27.9873C321.437 33.6114 325.985 38.1707 331.595 38.1707Z" fill="#FFB8B8"/>
<path d="M318.117 25.2326C318.48 22.3424 319.972 19.7146 322.266 17.9256C324.559 16.1367 327.466 15.3327 330.35 15.6901L332.403 15.9467C335.286 16.3106 337.907 17.8061 339.692 20.1051C341.476 22.404 342.278 25.3187 341.922 28.2097L341.896 28.4154L337.559 27.873L336.597 23.536L335.784 27.6511L333.543 27.3708L333.058 25.1825L332.647 27.2587L318.092 25.4383L318.117 25.2326Z" fill="#2F2E41"/>
<path d="M281.91 64.3132C282.221 64.9243 282.661 65.4597 283.2 65.8817C283.739 66.3037 284.364 66.602 285.031 66.7557C285.698 66.9094 286.39 66.9147 287.059 66.7712C287.728 66.6277 288.357 66.3389 288.903 65.9252L298.13 71.3434L302.782 66.5257L289.645 59.0576C288.891 58.1849 287.843 57.6198 286.701 57.4694C285.559 57.319 284.402 57.5937 283.449 58.2415C282.495 58.8894 281.812 59.8653 281.529 60.9843C281.245 62.1033 281.381 63.2878 281.91 64.3132Z" fill="#FFB8B8"/>
<path d="M312.15 74.0491C305.345 74.0491 293.369 70.995 292.706 70.8243L292.496 70.7706L294.381 61.2039L312.673 64.8258L322.611 50.7975L334.02 49.6348L333.701 50.0549C333.553 50.2506 318.846 69.6585 316.557 72.9142C315.98 73.7356 314.33 74.0491 312.15 74.0491Z" fill="#3F3D56"/>
<path d="M313.975 109.955L313.703 109.825C313.645 109.797 307.863 106.977 304.868 101.473C301.887 95.9952 315.84 72.757 316.817 71.1446L316.831 63.7648L321.85 50.1795L328.252 46.5525L322.756 59.408L313.975 109.955Z" fill="#3F3D56"/>
<path d="M307.562 189.273L301.444 189.273L298.533 165.617L307.562 165.617L307.562 189.273Z" fill="#FFB8B8"/>
<path d="M309.122 195.218L289.396 195.217V194.967C289.396 192.926 290.205 190.968 291.645 189.525C293.085 188.081 295.037 187.27 297.074 187.27H297.074L309.123 187.271L309.122 195.218Z" fill="#2F2E41"/>
<path d="M373.276 183.899L367.463 185.808L357.349 164.237L365.93 161.419L373.276 183.899Z" fill="#FFB8B8"/>
<path d="M376.606 189.061L357.86 195.218L357.782 194.981C357.148 193.041 357.309 190.928 358.229 189.107C359.149 187.286 360.753 185.905 362.688 185.269L362.688 185.269L374.138 181.509L376.606 189.061Z" fill="#2F2E41"/>
<path d="M361.431 180.031L343.99 150.843L329.267 119.659L316.018 147.205L310.755 182.881L292.298 183.138L292.371 182.849L320.616 70.3406L342.738 73.6536L341.731 88.2914L342.331 89.1465C347.328 96.2629 352.495 103.621 349.531 111.552L357.932 136.558L376.529 178.196L361.431 180.031Z" fill="#2F2E41"/>
<path d="M321.627 94.7246C318.422 94.7246 314.764 91.0555 316.662 84.7914L316.539 84.7022L321.096 64.5186C317.119 58.817 322.362 54.1115 322.854 53.6912L325.357 49.1749L336.4 42.1541L341.988 88.6938L341.905 88.7731C337.869 92.6437 324.316 94.7246 321.627 94.7246Z" fill="#6C63FF"/>
<path d="M344.243 105.226C343.804 105.233 343.366 105.186 342.939 105.088C342.509 104.98 341.814 104.432 340.739 100.925C336.468 86.9832 331.425 45.0349 335.089 40.93L335.173 40.836L341.189 41.8411C341.689 41.4711 344.313 39.6348 346.734 39.9541C347.233 40.017 347.713 40.1816 348.146 40.4379C348.578 40.6942 348.954 41.0367 349.249 41.4442L349.29 41.4986L351.207 68.8307L358.228 100.995L358.06 101.072C357.651 101.258 348.884 105.226 344.243 105.226Z" fill="#3F3D56"/>
<path d="M340.198 94.5433C340.881 94.5204 341.552 94.3475 342.162 94.0369C342.772 93.7262 343.306 93.2852 343.727 92.7451C344.149 92.2049 344.447 91.5787 344.601 90.9105C344.755 90.2423 344.761 89.5484 344.618 88.8776L353.425 82.7973L351.044 76.5312L338.728 85.293C337.62 85.6077 336.665 86.319 336.045 87.2921C335.425 88.2651 335.183 89.4323 335.364 90.5726C335.545 91.7128 336.137 92.7468 337.028 93.4786C337.919 94.2104 339.047 94.5892 340.198 94.5433H340.198Z" fill="#FFB8B8"/>
<path d="M350.519 87.6695L342.675 81.903L353.701 66.8302L345.239 51.8611L349.025 41.0093L349.27 41.4767C349.384 41.6943 360.684 63.2742 362.655 66.7326C364.706 70.33 351.231 86.8029 350.657 87.502L350.519 87.6695Z" fill="#3F3D56"/>
<path d="M273.5 119.807L129.365 124.704C125.802 124.821 122.339 123.517 119.735 121.077C117.13 118.638 115.598 115.262 115.473 111.691L113.099 41.4874C112.982 37.9162 114.283 34.4444 116.717 31.8337C119.151 29.223 122.518 27.6866 126.08 27.5615L270.215 22.664C273.778 22.547 277.241 23.8513 279.845 26.2909C282.45 28.7304 283.982 32.1059 284.107 35.6768L286.481 105.881C286.598 109.452 285.297 112.924 282.863 115.535C280.429 118.145 277.062 119.682 273.5 119.807Z" fill="white"/>
<path d="M286.481 105.881L286.494 106.252C286.609 109.664 285.367 112.981 283.042 115.475C280.716 117.969 277.498 119.434 274.095 119.55L129.239 124.472C125.836 124.587 122.527 123.343 120.04 121.012C117.553 118.682 116.09 115.457 115.974 112.046L115.962 111.675L286.481 105.881Z" fill="#F2F2F2"/>
<path d="M144.188 49.4209C133.807 52.3684 124.137 44.6143 122.243 37.1802L122.968 37.0249C131.725 34.7699 141.788 40.7577 144.188 49.4209Z" fill="#6C63FF"/>
<path d="M246.818 99.6076C244.479 99.687 242.596 99.0531 241.22 97.7231C238.109 94.717 238.095 88.7194 238.083 83.9002C238.08 82.4983 238.077 81.1739 237.997 80.0672L237.997 80.0505C237.934 77.8851 238.726 75.7824 240.201 74.1992C241.676 72.616 243.715 71.6802 245.874 71.595L265.262 70.9363C267.597 70.857 269.478 71.49 270.854 72.8182C273.964 75.8218 273.981 81.8178 273.994 86.6357C273.998 88.0406 274.001 89.3678 274.082 90.4764C274.147 92.6449 273.356 94.7517 271.88 96.3384C270.404 97.9251 268.363 98.8633 266.201 98.9489L246.818 99.6076ZM238.811 80.0171C238.892 81.1503 238.895 82.4852 238.898 83.8983C238.909 88.5633 238.923 94.3691 241.785 97.135C243.014 98.3222 244.651 98.8639 246.79 98.7913L266.172 98.1327C268.117 98.0563 269.953 97.2138 271.281 95.7881C272.61 94.3625 273.324 92.4689 273.268 90.5187C273.186 89.3985 273.183 88.0576 273.179 86.6379C273.166 81.9742 273.15 76.1698 270.288 73.4065C269.061 72.2211 267.425 71.6801 265.289 71.7526L245.903 72.4114C243.96 72.4883 242.126 73.3299 240.798 74.7538C239.471 76.1776 238.756 78.0688 238.811 80.0171Z" fill="#3F3D56"/>
<path d="M139.93 50.3175C136.53 50.4124 133.171 49.549 130.236 47.8254C125.938 45.3463 122.618 41.2546 121.571 37.1478L121.466 36.7362L122.597 36.4935C131.484 34.208 141.829 40.2483 144.303 49.1739L144.411 49.5653L144.021 49.6761C142.688 50.0552 141.315 50.2706 139.93 50.3175ZM122.473 37.3554C123.578 41.1178 126.672 44.8273 130.643 47.1174C134.484 49.4016 139.068 50.0772 143.402 48.9978C140.849 40.6906 131.144 35.1302 122.791 37.2867L122.473 37.3554Z" fill="#3F3D56"/>
<path d="M130.203 97.086C128.978 97.1732 127.753 96.9245 126.658 96.3664C125.564 95.8083 124.641 94.962 123.99 93.9183C123.235 92.6742 122.812 91.2562 122.763 89.8009C122.713 88.3455 123.038 86.9019 123.707 85.609C124.298 84.5017 125.184 83.5802 126.266 82.9465C127.347 82.3129 128.583 81.9918 129.836 82.019L155.668 81.1412C156.915 81.0322 158.168 81.2706 159.288 81.83C160.409 82.3894 161.354 83.2482 162.018 84.3116C162.773 85.5558 163.195 86.9738 163.244 88.4289C163.293 89.8841 162.967 91.3274 162.299 92.6198C161.082 94.8783 158.906 96.1364 156.171 96.2026L130.338 97.0804C130.293 97.0825 130.248 97.0844 130.203 97.086ZM129.736 82.8386C128.648 82.8315 127.579 83.1217 126.643 83.6781C125.707 84.2345 124.94 85.0361 124.424 85.9967C123.822 87.1614 123.529 88.462 123.574 89.7731C123.618 91.0842 123.999 92.3617 124.679 93.4824C125.269 94.4217 126.107 95.1788 127.1 95.6698C128.093 96.1608 129.202 96.3666 130.305 96.2643L156.149 95.3861C157.257 95.414 158.351 95.1341 159.31 94.5774C160.268 94.0207 161.055 93.2088 161.582 92.2317C162.184 91.0674 162.478 89.7671 162.433 88.4561C162.389 87.1452 162.009 85.8677 161.329 84.7468C160.738 83.8078 159.899 83.0506 158.906 82.5584C157.914 82.0662 156.804 81.8583 155.701 81.9573L129.855 82.8356C129.815 82.8363 129.776 82.8373 129.736 82.8386V82.8386Z" fill="#3F3D56"/>
<path d="M252.829 81.0762L244.685 81.3529C244.146 81.3705 243.622 81.1728 243.227 80.8031C242.833 80.4334 242.601 79.922 242.583 79.3812C242.565 78.8404 242.761 78.3144 243.13 77.9188C243.498 77.5232 244.008 77.2903 244.547 77.2713L252.691 76.9946C253.231 76.9762 253.756 77.1737 254.15 77.5434C254.545 77.9132 254.777 78.425 254.796 78.9662C254.814 79.5075 254.617 80.0339 254.248 80.4296C253.879 80.8253 253.369 81.0579 252.829 81.0762L252.829 81.0762Z" fill="#6C63FF"/>
<path d="M253.049 87.6068L244.906 87.8835C244.638 87.893 244.371 87.8495 244.121 87.7556C243.87 87.6616 243.64 87.5189 243.444 87.3358C243.248 87.1527 243.091 86.9327 242.98 86.6884C242.869 86.4441 242.807 86.1802 242.798 85.912C242.789 85.6437 242.833 85.3763 242.927 85.125C243.021 84.8738 243.164 84.6435 243.347 84.4476C243.529 84.2516 243.749 84.0937 243.993 83.9829C244.237 83.8721 244.5 83.8106 244.768 83.8019L252.911 83.5252C253.179 83.5157 253.445 83.5592 253.696 83.6532C253.947 83.7472 254.177 83.8898 254.373 84.0729C254.568 84.256 254.726 84.476 254.837 84.7203C254.948 84.9647 255.01 85.2285 255.019 85.4968C255.028 85.765 254.984 86.0324 254.89 86.2837C254.796 86.535 254.653 86.7652 254.47 86.9612C254.287 87.1572 254.068 87.3151 253.824 87.4258C253.58 87.5366 253.317 87.5981 253.049 87.6068Z" fill="#6C63FF"/>
<path d="M253.27 94.1375L245.126 94.4142C244.587 94.4325 244.061 94.2351 243.667 93.8653C243.272 93.4956 243.04 92.9838 243.022 92.4425C243.003 91.9013 243.2 91.3749 243.569 90.9792C243.938 90.5835 244.449 90.3509 244.988 90.3326L253.132 90.0559C253.399 90.0468 253.666 90.0906 253.916 90.1847C254.166 90.2789 254.396 90.4216 254.591 90.6047C254.787 90.7878 254.944 91.0077 255.055 91.2518C255.166 91.4959 255.227 91.7595 255.236 92.0275C255.246 92.2955 255.202 92.5627 255.108 92.8137C255.014 93.0648 254.872 93.2949 254.689 93.4908C254.506 93.6868 254.287 93.8447 254.043 93.9557C253.8 94.0666 253.537 94.1284 253.27 94.1375Z" fill="#6C63FF"/>
<path d="M267.078 80.5918L258.935 80.8685C258.668 80.878 258.401 80.8345 258.15 80.7405C257.899 80.6465 257.669 80.5039 257.473 80.3208C257.278 80.1377 257.12 79.9177 257.009 79.6734C256.898 79.429 256.836 79.1652 256.827 78.897C256.818 78.6287 256.862 78.3613 256.956 78.11C257.05 77.8587 257.193 77.6285 257.376 77.4326C257.559 77.2366 257.778 77.0787 258.022 76.9679C258.266 76.8571 258.53 76.7956 258.797 76.7869L266.94 76.5102C267.208 76.5011 267.474 76.5449 267.725 76.6391C267.975 76.7333 268.205 76.8759 268.4 77.059C268.596 77.2421 268.753 77.462 268.864 77.7061C268.974 77.9503 269.036 78.2138 269.045 78.4818C269.054 78.7498 269.011 79.017 268.917 79.2681C268.823 79.5192 268.68 79.7492 268.498 79.9452C268.315 80.1411 268.096 80.2991 267.852 80.41C267.609 80.521 267.346 80.5827 267.078 80.5918Z" fill="#6C63FF"/>
<path d="M267.3 87.1224L259.157 87.3991C258.617 87.4174 258.092 87.22 257.697 86.8503C257.302 86.4805 257.07 85.9687 257.052 85.4275C257.034 84.8862 257.231 84.3598 257.599 83.9642C257.968 83.5685 258.479 83.3359 259.019 83.3175L267.162 83.0408C267.43 83.0313 267.696 83.0748 267.947 83.1688C268.198 83.2628 268.428 83.4054 268.624 83.5885C268.819 83.7717 268.977 83.9917 269.088 84.236C269.199 84.4803 269.261 84.7441 269.27 85.0124C269.279 85.2806 269.235 85.548 269.141 85.7993C269.047 86.0506 268.904 86.2808 268.721 86.4768C268.538 86.6727 268.319 86.8307 268.075 86.9414C267.831 87.0522 267.568 87.1137 267.3 87.1224V87.1224Z" fill="#6C63FF"/>
<path d="M267.521 93.6531L259.377 93.9298C259.11 93.9393 258.843 93.8958 258.592 93.8018C258.341 93.7078 258.112 93.5652 257.916 93.3821C257.72 93.1989 257.562 92.9789 257.451 92.7346C257.341 92.4903 257.279 92.2265 257.27 91.9583C257.261 91.69 257.304 91.4226 257.399 91.1713C257.493 90.9201 257.635 90.6898 257.818 90.4939C258.001 90.2979 258.221 90.14 258.465 90.0292C258.709 89.9184 258.972 89.8569 259.239 89.8482L267.383 89.5715C267.65 89.5624 267.917 89.6062 268.167 89.7004C268.418 89.7945 268.647 89.9372 268.842 90.1203C269.038 90.3034 269.195 90.5233 269.306 90.7674C269.417 91.0115 269.478 91.2751 269.488 91.5431C269.497 91.8111 269.453 92.0783 269.359 92.3294C269.265 92.5804 269.123 92.8105 268.94 93.0064C268.757 93.2024 268.538 93.3603 268.295 93.4713C268.051 93.5822 267.788 93.644 267.521 93.6531Z" fill="#6C63FF"/>
<path d="M284.625 50.9593L114.105 56.7534L114.133 57.5697L284.653 51.7756L284.625 50.9593Z" fill="#3F3D56"/>
<path d="M273.5 119.807L129.365 124.704C125.802 124.821 122.339 123.517 119.735 121.077C117.13 118.638 115.598 115.262 115.473 111.691L113.099 41.4874C112.982 37.9162 114.283 34.4444 116.717 31.8337C119.151 29.223 122.518 27.6866 126.08 27.5615L270.215 22.664C273.778 22.547 277.241 23.8513 279.845 26.2909C282.45 28.7304 283.982 32.1059 284.107 35.6768L286.481 105.881C286.598 109.452 285.297 112.924 282.863 115.535C280.429 118.145 277.062 119.682 273.5 119.807ZM126.108 28.3778C122.761 28.4953 119.598 29.9386 117.312 32.3911C115.026 34.8436 113.804 38.105 113.913 41.4597L116.287 111.664C116.404 115.018 117.844 118.189 120.291 120.481C122.737 122.773 125.99 123.998 129.337 123.888L273.472 118.99C276.819 118.873 279.982 117.43 282.268 114.977C284.554 112.525 285.776 109.263 285.667 105.909L283.293 35.7045C283.176 32.35 281.736 29.1791 279.289 26.8874C276.843 24.5957 273.59 23.3704 270.243 23.4803L126.108 28.3778Z" fill="#3F3D56"/>
<path d="M66.9867 102.437C66.9528 101.719 66.7622 101.017 66.4284 100.38C66.0946 99.7441 65.6257 99.189 65.0547 98.754C64.4837 98.3191 63.8245 98.015 63.1236 97.863C62.4227 97.7111 61.6971 97.7151 60.9979 97.8747L54.511 88.7104L47.9941 91.3039L57.3362 104.117C57.6815 105.276 58.4392 106.269 59.4657 106.906C60.4923 107.543 61.7163 107.781 62.9058 107.574C64.0954 107.367 65.1678 106.729 65.92 105.782C66.6721 104.836 67.0517 103.645 66.9867 102.437H66.9867Z" fill="#A0616A"/>
<path d="M54.344 101.758L34.7158 76.2313L42.0703 53.0605C42.6093 47.2351 46.2457 45.6084 46.4004 45.5419L46.6364 45.4404L53.0362 62.5489L48.3373 75.1102L59.8707 94.5554L54.344 101.758Z" fill="#3F3D56"/>
<path d="M122.509 23.0689C121.798 23.1583 121.114 23.403 120.507 23.7859C119.9 24.1687 119.384 24.6803 118.996 25.2845C118.608 25.8888 118.356 26.5712 118.259 27.2835C118.162 27.9957 118.222 28.7207 118.435 29.4072L109.822 36.599L112.905 42.9119L124.926 32.5843C126.053 32.1495 126.981 31.3155 127.536 30.2402C128.09 29.165 128.232 27.9233 127.934 26.7504C127.636 25.5775 126.919 24.5549 125.919 23.8764C124.92 23.1978 123.706 22.9105 122.509 23.0689H122.509Z" fill="#A0616A"/>
<path d="M122.811 35.7571L98.9416 57.3482L75.3282 51.7892C69.4927 51.7009 67.5938 48.1923 67.5157 48.0428L67.3965 47.8147L83.9171 40.0957L96.7734 43.8209L115.221 30.7903L122.811 35.7571Z" fill="#3F3D56"/>
<path d="M81.4653 189.248H87.8787L90.9294 164.45L81.4639 164.45L81.4653 189.248Z" fill="#A0616A"/>
<path d="M100.247 195.217L80.0909 195.218L80.0905 187.411L93.3429 187.411C95.1739 187.411 96.9299 188.14 98.2247 189.438C99.5195 190.736 100.247 192.496 100.247 194.331L100.247 195.217Z" fill="#2F2E41"/>
<path d="M55.8325 189.248H62.2459L65.2966 164.45L55.8311 164.45L55.8325 189.248Z" fill="#A0616A"/>
<path d="M74.6143 195.217L54.4581 195.218L54.4577 187.411L67.7101 187.411C68.6167 187.411 69.5144 187.59 70.3521 187.938C71.1897 188.285 71.9508 188.795 72.5919 189.438C73.233 190.08 73.7416 190.843 74.0886 191.683C74.4356 192.523 74.6142 193.422 74.6142 194.331L74.6143 195.217Z" fill="#2F2E41"/>
<path d="M53.5508 98.7329L54.074 135.441L54.5967 183.687L66.1056 182.638L71.8598 116.038L79.1836 182.638H91.0651L92.2616 115.514L88.0765 100.83L53.5508 98.7329Z" fill="#2F2E41"/>
<path d="M76.0758 103.662C63.5537 103.663 52.0272 97.9818 51.8716 97.9038L51.7424 97.839L50.6916 72.5583C50.3868 71.6649 44.3865 54.0369 43.3702 48.4339C42.3406 42.7572 57.2633 37.7752 59.0755 37.1926L59.4867 32.626L76.2095 30.8196L78.329 36.6628L84.3284 38.9179C85.0085 39.1738 85.5714 39.6708 85.9104 40.3149C86.2494 40.9591 86.3409 41.7054 86.1676 42.4126L82.8332 56.0058L90.9769 100.978L89.2237 101.054C85.0753 102.849 80.5934 103.738 76.0758 103.662Z" fill="#3F3D56"/>
<path d="M68.5034 27.928C75.1532 27.928 80.5439 22.5241 80.5439 15.8579C80.5439 9.19181 75.1532 3.78784 68.5034 3.78784C61.8536 3.78784 56.4629 9.19181 56.4629 15.8579C56.4629 22.5241 61.8536 27.928 68.5034 27.928Z" fill="#A0616A"/>
<path d="M58.7507 27.5421C61.0454 29.9924 65.3068 28.677 65.6058 25.3296C65.6293 25.0697 65.6276 24.8081 65.6007 24.5486C65.4464 23.0658 64.5918 21.7196 64.7965 20.154C64.8429 19.7644 64.9877 19.3931 65.2172 19.0752C67.0458 16.6206 71.3381 20.1731 73.0638 17.951C74.122 16.5885 72.8781 14.4433 73.6901 12.9205C74.7619 10.9106 77.9363 11.9021 79.927 10.8013C82.1419 9.57665 82.0094 6.17001 80.5514 4.09793C78.7733 1.57093 75.6558 0.222521 72.577 0.0281926C69.4983 -0.166136 66.4408 0.668154 63.5666 1.79104C60.3008 3.06686 57.0624 4.83006 55.0527 7.70868C52.6087 11.2094 52.3735 15.9158 53.5958 20.0092C54.3394 22.4993 56.8769 25.5412 58.7507 27.5421Z" fill="#2F2E41"/>
<path d="M398.511 195.874H0.488971C0.359288 195.874 0.234916 195.822 0.143216 195.73C0.051516 195.638 0 195.513 0 195.383C0 195.253 0.051516 195.129 0.143216 195.037C0.234916 194.945 0.359288 194.893 0.488971 194.893H398.511C398.641 194.893 398.765 194.945 398.857 195.037C398.948 195.129 399 195.253 399 195.383C399 195.513 398.948 195.638 398.857 195.73C398.765 195.822 398.641 195.874 398.511 195.874Z" fill="#CACACA"/>
<path d="M221.956 263.387L227.733 263.386L230.481 241.05L221.955 241.051L221.956 263.387Z" fill="#FFB8B8"/>
<path d="M220.483 261.496L231.86 261.496H231.86C233.783 261.496 235.627 262.261 236.986 263.624C238.346 264.987 239.11 266.836 239.11 268.763V268.999L220.484 269L220.483 261.496Z" fill="#2F2E41"/>
<path d="M168.241 263.387L174.018 263.386L176.766 241.05L168.24 241.051L168.241 263.387Z" fill="#FFB8B8"/>
<path d="M166.768 261.496L178.144 261.496H178.144C180.067 261.496 181.911 262.261 183.271 263.624C184.63 264.987 185.394 266.836 185.394 268.763V268.999L166.768 269L166.768 261.496Z" fill="#2F2E41"/>
<path d="M224.259 150.036C224.259 150.036 229.108 163.229 228.415 168.784C227.723 174.339 233.264 213.225 232.571 216.697C231.879 220.169 233.264 237.528 232.571 240.306C231.879 243.083 234.516 246.401 233.13 249.178C231.745 251.956 229.801 257.665 229.801 257.665L220.796 256.971L219.411 249.333C219.411 249.333 215.254 248.638 215.947 244.472C216.64 240.306 212.484 212.53 212.484 212.53L200.708 173.645L184.084 209.059C184.084 209.059 183.391 234.056 181.313 236.834C179.235 239.611 183.391 247.25 181.313 250.027C179.235 252.805 177.157 257.665 177.157 257.665H166.767V252.11C166.767 252.11 160.533 248.638 166.767 238.223L170.979 175.672L175.135 147.202L224.259 150.036Z" fill="#2F2E41"/>
<path d="M198.437 62.7241C205.582 62.7241 211.374 56.9175 211.374 49.7548C211.374 42.592 205.582 36.7854 198.437 36.7854C191.291 36.7854 185.499 42.592 185.499 49.7548C185.499 56.9175 191.291 62.7241 198.437 62.7241Z" fill="#FFB8B8"/>
<path d="M209.447 48.86C208.534 51.1982 207.621 53.5363 206.708 55.8745C205.586 58.7489 204.301 61.8243 201.67 63.4284C198.422 65.4091 194.084 64.4433 190.942 62.2978C188.116 60.3681 185.947 57.6177 184.726 54.416C183.505 51.2143 183.29 47.7147 184.111 44.3872C184.932 41.0597 186.749 38.0637 189.318 35.8016C191.887 33.5395 195.085 32.1197 198.482 31.7329L198.612 34.0806L201.486 31.6658C201.699 32.0314 201.991 32.3439 202.342 32.58C202.692 32.8161 203.091 32.9695 203.509 33.0287C203.927 33.088 204.353 33.0515 204.755 32.9221C205.157 32.7927 205.524 32.5737 205.829 32.2815C205.074 33.8502 205.946 35.7634 207.204 36.9651C208.75 38.4413 213.171 40.2155 212.988 42.8545C212.865 44.6156 210.16 47.0349 209.447 48.86Z" fill="#2F2E41"/>
<path d="M162.824 169.221C162.378 168.554 162.084 167.797 161.961 167.004C161.838 166.21 161.891 165.4 162.115 164.629C162.339 163.858 162.728 163.146 163.256 162.542C163.784 161.939 164.438 161.459 165.171 161.136L164.913 148.589L172.48 146.572L172.597 164.295C173.057 165.566 173.035 166.962 172.537 168.218C172.038 169.474 171.098 170.503 169.893 171.11C168.688 171.717 167.303 171.86 166 171.512C164.698 171.164 163.567 170.349 162.824 169.221Z" fill="#FFB8B8"/>
<path d="M188.827 70.7397C188.827 70.7397 198.852 65.7146 208.321 69.0647C217.79 72.4147 222.802 76.3232 222.802 76.3232L216.676 108.707L225.03 152.258C225.03 152.258 182.143 148.908 178.244 152.258C174.345 155.608 174.345 148.35 174.345 148.35L177.687 107.032L171.561 80.7899L188.827 70.7397Z" fill="#3F3D56"/>
<path d="M231.141 169.964C230.526 169.449 230.031 168.806 229.691 168.079C229.352 167.352 229.175 166.559 229.174 165.756C229.173 164.953 229.347 164.16 229.685 163.432C230.023 162.704 230.516 162.06 231.129 161.543L227.367 149.574L234.065 145.509L239.141 162.486C239.938 163.576 240.308 164.922 240.182 166.267C240.055 167.613 239.44 168.865 238.454 169.787C237.468 170.709 236.179 171.236 234.831 171.269C233.483 171.301 232.17 170.837 231.141 169.964Z" fill="#FFB8B8"/>
<path d="M218.903 76.3232H222.802C222.802 76.3232 228.929 80.2317 228.929 85.8151C228.929 91.3986 237.841 156.725 237.841 156.725L228.372 158.4L220.017 112.616L213.891 100.332L218.903 76.3232Z" fill="#3F3D56"/>
<path d="M182.142 80.79H171.56C171.56 80.79 168.218 84.1401 166.547 91.957C164.876 99.7738 163.205 130.483 163.205 130.483L164.319 158.4H172.674L173.788 122.108L179.357 98.6571L182.142 80.79Z" fill="#3F3D56"/>
</svg>
